#N canvas 945 105 709 852 12;
#X floatatom 321 328 5 0 0 0 - - - 0;
#X msg 194 214 send got anything?;
#X obj 194 272 netreceive 3001;
#X obj 194 301 route play;
#X obj 326 801 dac~;
#X obj 217 450 spigot 1;
#X obj 370 452 spigot 0;
#X obj 215 543 playBuffer;
#X obj 282 570 s moarData;
#X obj 164 30 r moarData;
#X obj 437 569 s moarData;
#X obj 370 542 playBuffer;
#X obj 256 694 *~;
#X obj 277 606 r vol;
#X obj 273 666 line~;
#X msg 275 635 \$1 100;
#X obj 376 684 *~;
#X obj 397 596 r vol;
#X obj 393 656 line~;
#X msg 395 625 \$1 100;
#X obj 334 750 +~;
#X obj 605 77 vsl 15 128 0 1 0 0 empty empty empty 0 -9 0 10 #fcfcfc
#000000 #000000 0 1;
#X obj 601 224 s vol;
#X obj 594 21 loadbang;
#X msg 606 51 0.5;
#X obj 217 484 t a a;
#X obj 369 484 t a a;
#X obj 194 328 t b a b;
#X obj 141 403 + 1;
#X obj 159 355 % 2;
#X obj 141 380 i 0;
#X obj 416 422 == 0;
#X obj 302 143 delay 100;
#X msg 199 175 bang;
#X obj 130 72 select 0;
#X obj 84 182 r pyPort;
#X obj 140 273 print;
#X msg 84 207 listen \$1;
#X msg 68 536 \; pd dsp 1;
#X obj 68 510 loadbang;
#X obj 134 243 t b a;
#X obj 336 99 delay 1000;
#X msg 334 70 stop;
#X obj 302 38 t b b;
#X text 415 99 <- no response;
#X obj 427 202 print;
#X connect 1 0 2 0;
#X connect 2 0 3 0;
#X connect 2 1 0 0;
#X connect 3 0 27 0;
#X connect 3 0 42 0;
#X connect 3 1 43 0;
#X connect 5 0 25 0;
#X connect 6 0 26 0;
#X connect 7 0 12 0;
#X connect 7 2 8 0;
#X connect 9 0 34 0;
#X connect 11 0 16 0;
#X connect 11 2 10 0;
#X connect 12 0 20 0;
#X connect 13 0 15 0;
#X connect 14 0 12 1;
#X connect 15 0 14 0;
#X connect 16 0 20 1;
#X connect 17 0 19 0;
#X connect 18 0 16 1;
#X connect 19 0 18 0;
#X connect 20 0 4 0;
#X connect 20 0 4 1;
#X connect 21 0 22 0;
#X connect 23 0 24 0;
#X connect 24 0 21 0;
#X connect 25 0 7 0;
#X connect 26 0 11 0;
#X connect 27 0 30 0;
#X connect 27 1 6 0;
#X connect 27 1 5 0;
#X connect 28 0 29 0;
#X connect 29 0 30 1;
#X connect 30 0 28 0;
#X connect 30 0 31 0;
#X connect 30 0 5 1;
#X connect 31 0 6 1;
#X connect 32 0 33 0;
#X connect 33 0 1 0;
#X connect 33 0 41 0;
#X connect 34 0 33 0;
#X connect 35 0 37 0;
#X connect 37 0 40 0;
#X connect 39 0 38 0;
#X connect 40 0 33 0;
#X connect 40 1 36 0;
#X connect 40 1 2 0;
#X connect 41 0 32 0;
#X connect 41 0 45 0;
#X connect 42 0 41 0;
#X connect 43 0 32 0;
#X connect 43 1 42 0;
