#N canvas 201 1105 1056 771 12;
#X obj 47 59 table \$0-audioBuffer 661500;
#X obj 489 410 outlet;
#X obj 345 192 soundfiler;
#X obj 307 474 line~;
#X msg 307 450 0 \, \$1 \$2;
#X obj 307 423 pack f f;
#X obj 360 394 / 11.025;
#X obj 383 363 line~;
#X obj 366 432 *~;
#X obj 345 261 t f f b;
#X msg 391 294 0 \, 1 500;
#X obj 220 227 line;
#X obj 238 253 >;
#X floatatom 152 252 5 0 0 0 - - - 0;
#X obj 256 228 - 11025;
#X msg 229 349 0 500;
#X obj 229 316 select 1;
#X obj 342 61 inlet;
#X msg 540 369 1;
#X msg 487 372 0;
#X obj 482 344 delay;
#X obj 373 458 outlet~;
#X obj 229 288 change;
#X obj 438 411 outlet;
#X obj 308 500 tabread4~ \$0-audioBuffer;
#X obj 421 63 int \$0;
#X obj 419 35 loadbang;
#X obj 361 119 pack s f;
#X msg 361 144 read sounds/\$1 \$2-audioBuffer;
#X obj 503 204 inlet;
#X msg 502 232 1;
#X obj 501 293 - 1000;
#X connect 2 0 9 0;
#X connect 3 0 24 0;
#X connect 4 0 3 0;
#X connect 4 0 11 0;
#X connect 5 0 4 0;
#X connect 6 0 5 1;
#X connect 6 0 31 0;
#X connect 7 0 8 1;
#X connect 8 0 21 0;
#X connect 9 0 5 0;
#X connect 9 0 14 0;
#X connect 9 1 6 0;
#X connect 9 2 10 0;
#X connect 9 2 18 0;
#X connect 10 0 7 0;
#X connect 11 0 12 0;
#X connect 12 0 13 0;
#X connect 12 0 22 0;
#X connect 14 0 12 1;
#X connect 15 0 7 0;
#X connect 16 0 15 0;
#X connect 16 0 23 0;
#X connect 17 0 27 0;
#X connect 18 0 1 0;
#X connect 19 0 1 0;
#X connect 20 0 19 0;
#X connect 22 0 16 0;
#X connect 24 0 8 0;
#X connect 25 0 27 1;
#X connect 26 0 25 0;
#X connect 27 0 28 0;
#X connect 28 0 2 0;
#X connect 29 0 30 0;
#X connect 30 0 22 0;
#X connect 31 0 20 0;
